<svg width="100%" viewBox="0 0 800 800" role="img" xmlns="http://www.w3.org/2000/svg" data-figure-system="fieldnotes-v1"><title>Observed to Approved</title><desc>Tacit field observations cross an institutional language threshold and become checkable, trusted form entries.</desc><rect width="800" height="800" fill="#efe6ce"/><g fill="none" stroke="#aba28d" stroke-width="5" stroke-linecap="round" stroke-linejoin="round" opacity="0.8"><path d="M110 320C150 290 198 284 246 300C286 314 322 314 360 292"/><path d="M116 420C160 394 212 384 264 394C310 402 346 394 382 370"/><path d="M130 520C182 494 238 486 296 500C330 508 362 502 394 482"/><path d="M172 242c22-26 60-26 82 0"/><path d="M202 242v44"/><path d="M234 242v44"/></g><g fill="#6b5a82" opacity="0.85"><circle cx="148" cy="321" r="8"/><circle cx="230" cy="398" r="8"/><circle cx="314" cy="502" r="8"/></g><path d="M418 160V640" stroke="#9b7fbc" stroke-width="6" stroke-dasharray="18 18" stroke-linecap="round"/><rect x="392" y="366" width="52" height="68" rx="10" fill="#efe6ce" stroke="#9b7fbc" stroke-width="5"/><rect x="498" y="226" width="188" height="318" rx="14" fill="none" stroke="#221733" stroke-width="5"/><g fill="none" stroke="#221733" stroke-width="5" stroke-linecap="round" stroke-linejoin="round"><rect x="526" y="286" width="28" height="28" rx="3"/><path d="M532 300l8 8l20-24"/><path d="M576 302H648"/><rect x="526" y="366" width="28" height="28" rx="3"/><path d="M532 380l8 8l20-24"/><path d="M576 382H660"/><rect x="526" y="446" width="28" height="28" rx="3"/><path d="M532 460l8 8l20-24"/><path d="M576 462H636"/></g><text x="400" y="704" text-anchor="middle" font-family="monospace" font-size="22" letter-spacing="3" fill="#6b5a82">OBSERVED BECOMES TRUSTED</text></svg>
