<svg width="100%" viewBox="0 0 800 800" role="img" xmlns="http://www.w3.org/2000/svg" data-figure-system="fieldnotes-v1"><title>Contour to Proposal</title><desc>Embodied field knowledge, drawn as land contours and observation points, crosses a language threshold and becomes legible as institutional document structure.</desc><rect width="800" height="800" fill="#efe6ce"/><g fill="none" stroke="#aba28d" stroke-width="5" stroke-linecap="round" opacity="0.75"><path d="M96 300C156 250 218 228 284 226C326 225 356 236 386 254"/><path d="M96 378C154 338 220 314 292 314C330 314 362 322 396 342"/><path d="M98 460C174 420 248 394 322 390C360 388 398 396 438 418"/><path d="M108 542C184 512 250 488 312 468C360 452 408 446 456 452"/></g><g fill="#6b5a82" opacity="0.82"><circle cx="130" cy="302" r="9"/><circle cx="166" cy="379" r="9"/><circle cx="220" cy="450" r="9"/><circle cx="284" cy="508" r="9"/></g><path d="M400 170V630" stroke="#9b7fbc" stroke-width="6" stroke-dasharray="18 18" stroke-linecap="round"/><circle cx="400" cy="400" r="34" fill="#efe6ce" stroke="#9b7fbc" stroke-width="5"/><rect x="468" y="218" width="210" height="300" rx="16" fill="none" stroke="#221733" stroke-width="5"/><g stroke="#221733" stroke-width="5" stroke-linecap="round"><path d="M506 284H638"/><path d="M506 336H650"/><path d="M506 388H622"/><path d="M506 440H658"/></g><g stroke="#c8bfa9" stroke-width="4" stroke-linecap="round"><path d="M506 494H592"/><path d="M618 494H650"/></g><text x="400" y="704" text-anchor="middle" font-family="monospace" font-size="24" letter-spacing="4" fill="#6b5a82">KNOWN / REQUIRED</text></svg>
