<svg width="100%" viewBox="0 0 800 800" role="img" xmlns="http://www.w3.org/2000/svg" data-figure-system="fieldnotes-v1"><title>Open Room Gate</title><desc>A field path reaches an open institutional doorway, suggesting that the barrier was translation rather than capability.</desc><rect width="800" height="800" fill="#efe6ce"/><g fill="none" stroke="#aba28d" stroke-width="5" stroke-linecap="round" opacity="0.75"><path d="M90 520C160 468 222 438 286 420C326 410 360 402 396 382"/><path d="M92 588C172 544 242 512 314 492C356 480 388 464 414 444"/><path d="M118 455C166 430 202 408 230 374"/></g><g fill="#6b5a82" opacity="0.85"><circle cx="128" cy="520" r="8"/><circle cx="190" cy="475" r="8"/><circle cx="258" cy="437" r="8"/></g><path d="M390 180V620" stroke="#9b7fbc" stroke-width="6" stroke-dasharray="20 18" stroke-linecap="round"/><path d="M390 258H520V568H390" fill="none" stroke="#221733" stroke-width="5" stroke-linejoin="round"/><path d="M520 258L620 310V620L520 568" fill="none" stroke="#6b5a82" stroke-width="5" stroke-linejoin="round"/><circle cx="500" cy="416" r="7" fill="#9b7fbc"/><rect x="574" y="336" width="112" height="158" rx="10" fill="none" stroke="#c8bfa9" stroke-width="5"/><path d="M596 376H660M596 416H666M596 456H642" stroke="#221733" stroke-width="4" stroke-linecap="round"/><path d="M392 620H688" stroke="#8b8474" stroke-width="5" stroke-linecap="round" opacity="0.65"/><text x="400" y="704" text-anchor="middle" font-family="monospace" font-size="22" letter-spacing="4" fill="#6b5a82">ACCESS THROUGH TRANSLATION</text></svg>
