<svg width="100%" viewBox="0 0 800 800" role="img" xmlns="http://www.w3.org/2000/svg" data-figure-system="fieldnotes-v1"><title>Bootprint to Brief</title><desc>Physical field experience, represented by bootprints, passes through a translation threshold and appears as a formal written brief.</desc><rect width="800" height="800" fill="#efe6ce"/><g fill="none" stroke="#8b8474" stroke-width="5" stroke-linecap="round" opacity="0.8"><path d="M136 550C210 504 254 454 288 396C326 330 356 276 404 238"/><path d="M148 572C228 526 280 472 316 410C350 352 382 296 426 260"/></g><g fill="#aba28d" opacity="0.9"><ellipse cx="148" cy="556" rx="18" ry="34" transform="rotate(58 148 556)"/><ellipse cx="224" cy="498" rx="18" ry="34" transform="rotate(43 224 498)"/><ellipse cx="284" cy="420" rx="18" ry="34" transform="rotate(26 284 420)"/><ellipse cx="340" cy="334" rx="18" ry="34" transform="rotate(33 340 334)"/></g><g fill="#efe6ce" stroke="#221733" stroke-width="3" opacity="0.9"><path d="M135 542l10 8l10-6"/><path d="M211 485l11 8l9-6"/><path d="M271 407l11 8l9-7"/><path d="M327 321l11 8l9-7"/></g><path d="M420 154V646" stroke="#9b7fbc" stroke-width="6" stroke-dasharray="16 20" stroke-linecap="round"/><rect x="396" y="360" width="48" height="80" rx="24" fill="#efe6ce" stroke="#9b7fbc" stroke-width="5"/><rect x="490" y="226" width="190" height="300" rx="14" fill="none" stroke="#221733" stroke-width="5"/><path d="M524 280H646M524 328H650M524 376H628M524 424H658M524 472H610" stroke="#221733" stroke-width="5" stroke-linecap="round"/><path d="M490 526l190 0" stroke="#c8bfa9" stroke-width="5"/><text x="400" y="704" text-anchor="middle" font-family="monospace" font-size="22" letter-spacing="3" fill="#6b5a82">THE WORK WAS ALREADY KNOWLEDGE</text></svg>
