<svg width="100%" viewBox="0 0 800 800" role="img" xmlns="http://www.w3.org/2000/svg" data-figure-system="fieldnotes-v1"><title>Rope to Paragraph</title><desc>A field rope crosses a language threshold and straightens into institutional paragraphs, preserving the same continuous line of knowledge.</desc><rect width="800" height="800" fill="#efe6ce"/><path d="M118 418C166 332 290 326 304 414C318 502 180 518 166 432C154 360 250 288 356 360C394 386 408 402 430 402" fill="none" stroke="#8b8474" stroke-width="8" stroke-linecap="round" stroke-linejoin="round"/><path d="M430 402C468 402 500 402 532 402" fill="none" stroke="#8b8474" stroke-width="8" stroke-linecap="round"/><path d="M410 150V650" stroke="#9b7fbc" stroke-width="6" stroke-dasharray="18 18" stroke-linecap="round"/><circle cx="410" cy="402" r="31" fill="#efe6ce" stroke="#9b7fbc" stroke-width="5"/><g fill="none" stroke="#221733" stroke-width="6" stroke-linecap="round"><path d="M520 310H676"/><path d="M520 358H650"/><path d="M520 406H690"/><path d="M520 454H636"/><path d="M520 502H672"/></g><g stroke="#aba28d" stroke-width="4" stroke-linecap="round" opacity="0.65"><path d="M134 562H312"/><path d="M156 594H272"/></g><text x="400" y="704" text-anchor="middle" font-family="monospace" font-size="22" letter-spacing="4" fill="#6b5a82">SAME LINE, NEW ROOM</text></svg>
