<svg xmlns="http://www.w3.org/2000/svg" viewBox="0 0 1200 800" role="img" data-figure-system="fieldnotes-v1"><title>Costume Left at the Door</title><desc>A person enters an institutional doorway unchanged; the costume of formal paperwork hangs beside the door rather than on the person.</desc><g fill="none" stroke="#c8bfa9" stroke-width="4" stroke-linecap="round" stroke-linejoin="round"><path d="M720 620V170h300v450"/><path d="M720 170h300"/><path d="M790 620V230h230"/><path d="M790 230v390"/><path d="M812 328h174M812 374h150M812 420h166"/></g><path d="M708 170v450" stroke="#9b7fbc" stroke-width="8" stroke-linecap="round"/><g fill="none" stroke="#221733" stroke-width="5" stroke-linecap="round" stroke-linejoin="round"><circle cx="420" cy="330" r="34"/><path d="M420 364v120"/><path d="M420 402l-74 54"/><path d="M420 402l86 42"/><path d="M420 484l-52 86"/><path d="M420 484l68 86"/><path d="M302 620c62-34 108-34 170 0s108 34 170 0"/></g><g fill="none" stroke="#8b8474" stroke-width="3" stroke-linecap="round"><path d="M210 490c46-26 78-26 124 0s78 26 124 0"/><path d="M248 245l-18 44M302 230l-18 44"/><ellipse cx="292" cy="365" rx="11" ry="20" transform="rotate(-24 292 365)"/><ellipse cx="332" cy="384" rx="9" ry="16" transform="rotate(-24 332 384)"/></g><g fill="none" stroke="#aba28d" stroke-width="4" stroke-linecap="round" stroke-linejoin="round"><path d="M612 258l-52 28l52 30l52-30z"/><path d="M612 316v104"/><path d="M612 340l-58 66"/><path d="M612 340l58 66"/></g><rect x="540" y="438" width="144" height="112" rx="4" fill="#efe6ce" stroke="#aba28d" stroke-width="3"/><text x="612" y="502" text-anchor="middle" fill="#6b5a82" font-family="monospace" font-size="30">RFP</text><path d="M520 500c70-4 114-50 188-150" fill="none" stroke="#9b7fbc" stroke-width="5" stroke-linecap="round"/><path d="M500 444c78-22 136-92 207-203" fill="none" stroke="#9b7fbc" stroke-width="3" stroke-linecap="round" opacity="0.75"/></svg>
