<svg xmlns="http://www.w3.org/2000/svg" viewBox="0 0 1200 800" role="img" data-figure-system="fieldnotes-v1"><title>The Room Hears It</title><desc>A decision room opens to a path from the field; weather, animal, and land signs arrive at the table as understandable structure.</desc><g fill="none" stroke="#c8bfa9" stroke-width="4" stroke-linecap="round" stroke-linejoin="round"><path d="M430 150h600v500H430V470"/><path d="M430 330V150"/><path d="M430 330c-72 20-72 120 0 140"/></g><ellipse cx="735" cy="400" rx="210" ry="112" fill="none" stroke="#221733" stroke-width="5"/><g fill="none" stroke="#aba28d" stroke-width="4"><circle cx="735" cy="235" r="28"/><circle cx="735" cy="565" r="28"/><circle cx="535" cy="400" r="28"/><circle cx="935" cy="400" r="28"/><circle cx="590" cy="290" r="24"/><circle cx="880" cy="510" r="24"/></g><rect x="675" y="340" width="120" height="120" rx="4" fill="#efe6ce" stroke="#c8bfa9" stroke-width="3"/><g fill="none" stroke="#221733" stroke-width="3" stroke-linecap="round"><path d="M700 372h72M700 400h62M700 428h78"/><path d="M685 455c36-18 64-18 100 0"/></g><g fill="none" stroke="#8b8474" stroke-width="3" stroke-linecap="round"><path d="M120 575c55-35 98-35 153 0s98 35 153 0"/><path d="M148 520c38-24 70-24 108 0s70 24 108 0"/><path d="M180 260l-22 54M242 240l-22 54M304 260l-22 54"/></g><g fill="#221733"><ellipse cx="250" cy="404" rx="12" ry="21" transform="rotate(-18 250 404)"/><ellipse cx="292" cy="420" rx="9" ry="16" transform="rotate(-18 292 420)"/></g><path d="M300 410C420 395 500 395 675 400" fill="none" stroke="#9b7fbc" stroke-width="8" stroke-linecap="round"/><path d="M300 410c55-48 110-74 190-80" fill="none" stroke="#9b7fbc" stroke-width="3" stroke-linecap="round"/><path d="M300 410c62 50 132 74 220 78" fill="none" stroke="#9b7fbc" stroke-width="3" stroke-linecap="round"/><circle cx="675" cy="400" r="10" fill="#9b7fbc"/></svg>
