<svg xmlns="http://www.w3.org/2000/svg" viewBox="0 0 1200 800" role="img" data-figure-system="fieldnotes-v1"><title>Distance Closed</title><desc>Field knowledge expressed as land, weather, and animal signs passes through a small amplifier and arrives as legible institutional language in an award room.</desc><g fill="none" stroke="#8b8474" stroke-width="3" stroke-linecap="round" stroke-linejoin="round"><path d="M120 575c70-42 120-42 190 0s120 42 190 0"/><path d="M140 520c48-30 86-30 134 0s86 30 134 0"/><path d="M170 468c28-18 52-18 80 0s52 18 80 0"/><path d="M190 235l-22 54M250 215l-22 54M310 235l-22 54"/></g><g fill="#221733"><ellipse cx="245" cy="385" rx="13" ry="22" transform="rotate(-28 245 385)"/><ellipse cx="286" cy="408" rx="10" ry="18" transform="rotate(-28 286 408)"/><ellipse cx="340" cy="372" rx="13" ry="22" transform="rotate(24 340 372)"/><ellipse cx="382" cy="351" rx="10" ry="18" transform="rotate(24 382 351)"/></g><g fill="none" stroke="#c8bfa9" stroke-width="3"><rect x="760" y="155" width="310" height="490"/><path d="M760 245h310M850 155v490"/><rect x="820" y="318" width="190" height="160" rx="4" fill="#efe6ce"/><path d="M850 352h130M850 386h112M850 420h138"/><path d="M850 514h130"/></g><path d="M500 400L600 300L700 400L600 500Z" fill="none" stroke="#9b7fbc" stroke-width="7" stroke-linejoin="round"/><g fill="none" stroke="#221733" stroke-width="4" stroke-linecap="round"><path d="M420 355C490 348 530 333 600 300"/><path d="M420 405C495 405 535 405 600 400"/><path d="M420 455C490 462 530 477 600 500"/><path d="M600 300C675 330 720 345 820 352"/><path d="M600 400C685 400 733 401 850 386"/><path d="M600 500C675 470 722 444 850 420"/></g><path d="M584 400h32" stroke="#9b7fbc" stroke-width="10" stroke-linecap="round"/></svg>
