<svg xmlns="http://www.w3.org/2000/svg" viewBox="0 0 1200 800" role="img" data-figure-system="fieldnotes-v1"><title>Barrier Was Translation</title><desc>Embodied knowledge and institutional language sit in separate panels until an amplifier keystone closes the gap between them.</desc><g fill="none" stroke="#aba28d" stroke-width="3" stroke-linecap="round" stroke-linejoin="round"><rect x="130" y="150" width="350" height="500"/><rect x="720" y="150" width="350" height="500"/><path d="M480 150l120 180l120-180"/><path d="M480 650l120-180l120 180"/></g><g fill="none" stroke="#221733" stroke-width="4" stroke-linecap="round"><path d="M185 510c42-28 78-28 120 0s78 28 120 0"/><path d="M185 560c42-28 78-28 120 0s78 28 120 0"/><path d="M218 255l-24 58M284 238l-24 58M350 255l-24 58"/></g><g fill="#221733"><ellipse cx="260" cy="400" rx="12" ry="22" transform="rotate(-25 260 400)"/><ellipse cx="304" cy="422" rx="9" ry="17" transform="rotate(-25 304 422)"/><ellipse cx="370" cy="380" rx="12" ry="22" transform="rotate(22 370 380)"/><ellipse cx="412" cy="360" rx="9" ry="17" transform="rotate(22 412 360)"/></g><rect x="802" y="222" width="188" height="258" rx="4" fill="#efe6ce" stroke="#c8bfa9" stroke-width="3"/><g fill="none" stroke="#221733" stroke-width="4" stroke-linecap="round"><path d="M842 270h112M842 316h130M842 362h96M842 408h124"/><rect x="815" y="258" width="16" height="16"/><rect x="815" y="304" width="16" height="16"/><rect x="815" y="350" width="16" height="16"/><rect x="815" y="396" width="16" height="16"/></g><path d="M554 365L600 320L646 365L600 410Z" fill="#9b7fbc" opacity="0.9"/><path d="M554 435L600 390L646 435L600 480Z" fill="none" stroke="#9b7fbc" stroke-width="5"/><g fill="none" stroke="#6b5a82" stroke-width="4" stroke-linecap="round"><path d="M455 350C500 350 522 356 554 365"/><path d="M455 450C500 450 522 444 554 435"/><path d="M646 365C680 356 701 350 745 350"/><path d="M646 435C680 444 701 450 745 450"/></g><path d="M585 400h30" stroke="#221733" stroke-width="4" stroke-linecap="round"/></svg>
