<svg width="100%" viewBox="0 0 260 190" role="img" xmlns="http://www.w3.org/2000/svg" data-figure-system="fieldnotes-v1">
<title>Intelligence amplifier</title>
<desc>A single human signal (purple) enters a model holding compressed human language and exits amplified, its reach fanning across domains it could not enter unaided — still the human's own intelligence, made larger.</desc>
<style>.m{font-family:'IBM Plex Mono',monospace;}</style>
<circle cx="30" cy="96" r="3" fill="#9b7fbc" opacity="0.9"/>
<path d="M33 96H104" stroke="#9b7fbc" stroke-width="1.2" opacity="0.85" fill="none"/>
<polygon points="104,68 104,124 150,96" fill="#efe6ce" stroke="#cabf9f" stroke-width="0.5" opacity="0.95"/>
<g fill="#aba28d" opacity="0.35">
<rect x="110" y="77" width="10" height="2" rx="0.5"/>
<rect x="110" y="85" width="25" height="2" rx="0.5"/>
<rect x="110" y="93" width="36" height="2" rx="0.5"/>
<rect x="110" y="101" width="32" height="2" rx="0.5"/>
<rect x="110" y="109" width="18" height="2" rx="0.5"/>
</g>
<g stroke="#9b7fbc" stroke-width="1" opacity="0.8" fill="none">
<path d="M150 96L208 54"/>
<path d="M150 96L210 75"/>
<path d="M150 96L212 96"/>
<path d="M150 96L210 117"/>
<path d="M150 96L208 138"/>
</g>

<g class="m" fill="#aba28d" opacity="0.8" font-size="4.5" letter-spacing="0.5">
<text x="211" y="57">LAW</text>
<text x="213" y="78">CODE</text>
<text x="216" y="99">MEDICINE</text>
<text x="213" y="120">DESIGN</text>
<text x="211" y="141">STRATEGY</text>
</g>
<text class="m" x="127" y="140" text-anchor="middle" font-size="6" letter-spacing="1.5" fill="#c8bfa9" opacity="0.9">AMPLIFIER</text>
<text class="m" x="16" y="108" font-size="8" letter-spacing="2" fill="#6b5a82">You</text>
<text class="m" x="208" y="158" text-anchor="end" font-size="8" letter-spacing="1.5" fill="#c8bfa9"></text>
</svg>
