<svg width="100%" viewBox="0 0 680 230" role="img" xmlns="http://www.w3.org/2000/svg" data-figure-system="fieldnotes-v1">
<title>Frame Splice workbench</title>
<desc>A truthful rendered interface diagram of Frame Splice: history, preview, timeline, prompt metadata, variants, and a provider gate arranged around the artifact.</desc>
<style>.m{font-family:'IBM Plex Mono',monospace;}</style>
<text class="m" x="34" y="32" font-size="9" letter-spacing="2.4" fill="#6b5a82">V · WORKBENCHES</text>
><text class="m" x="646" y="32" text-anchor="end" font-size="9" letter-spacing="1.8" fill="#8b8474">FIG. 4.1</text> -->
<g fill="none" stroke="#aba28d" stroke-width="0.75" opacity="0.78">
<rect x="34" y="52" width="156" height="122" rx="5"/>
<rect x="204" y="52" width="290" height="122" rx="5"/>
<rect x="508" y="52" width="138" height="122" rx="5"/>
<rect x="220" y="68" width="258" height="70" rx="4"/>
<path d="M220 154H478"/>
<path d="M234 154V166M276 154V166M318 154V166M360 154V166M402 154V166M444 154V166"/>
</g>
<g fill="#aba28d" opacity="0.58">
<rect x="50" y="72" width="118" height="10" rx="2"/><rect x="50" y="94" width="96" height="10" rx="2"/><rect x="50" y="116" width="126" height="10" rx="2"/><rect x="50" y="138" width="86" height="10" rx="2"/>
<rect x="524" y="78" width="74" height="8" rx="1"/><rect x="524" y="98" width="98" height="8" rx="1"/><rect x="524" y="118" width="82" height="8" rx="1"/>
</g>
<rect x="254" y="83" width="190" height="40" rx="4" fill="#efe6ce"/>
<text class="m" x="349" y="107" text-anchor="middle" font-size="7.2" letter-spacing="1.2" fill="#221733">PREVIEW ARTIFACT</text>
<rect x="592" y="138" width="36" height="18" rx="3" fill="#9b7fbc"/>
<path d="M604 143V152M616 143V152" stroke="#221733" stroke-width="1.2"/>
<text class="m" x="112" y="66" text-anchor="middle" font-size="7" letter-spacing="1.4" fill="#c8bfa9">HISTORY</text>
<text class="m" x="349" y="66" text-anchor="middle" font-size="7" letter-spacing="1.4" fill="#c8bfa9">PREVIEW + TIMELINE</text>
<text class="m" x="577" y="66" text-anchor="middle" font-size="7" letter-spacing="1.4" fill="#c8bfa9">PROMPT / GATE</text>
<text class="m" x="349" y="181" text-anchor="middle" font-size="7" letter-spacing="1.3" fill="#aba28d">SOURCE · SPLICE · VARIANTS · RECOVERY</text>
<text class="m" x="340" y="210" text-anchor="middle" font-size="8" letter-spacing="2" fill="#6b5a82">FIG. 4.1 — A WORKBENCH HOLDS THE ARTIFACT AND ITS DECISIONS</text>
</svg>
