<svg xmlns="http://www.w3.org/2000/svg" viewBox="0 0 720 360" role="img" aria-labelledby="title desc" data-grid="12-column">
  <title id="title">Feedback loop diagram</title>
  <desc id="desc">A horizontal feedback loop with two nodes, a return arc, and the delay segment emphasized.</desc>
  <defs>
    <marker id="open-triangle" viewBox="0 0 6 6" refX="5" refY="3" markerWidth="5" markerHeight="5" orient="auto-start-reverse">
      <path d="M1 1 L5 3 L1 5" fill="none" stroke="#111111" stroke-width="0.75"/>
    </marker>
    <style>
      .grid { stroke: #111111; stroke-width: 0.3; opacity: 0.14; }
      .primary { stroke: #111111; stroke-width: 0.75pt; fill: none; marker-end: url(#open-triangle); }
      .secondary { stroke: #111111; stroke-width: 0.4pt; fill: none; }
      .leader { stroke: #111111; stroke-width: 0.3pt; fill: none; }
      .state { stroke: #2b1244; stroke-width: 0.75pt; fill: none; stroke-dasharray: 8 7; marker-end: url(#open-triangle); }
      .node { fill: #2b1244; }
      .label { fill: #111111; font-family: "IBM Plex Mono", monospace; font-size: 13px; letter-spacing: 1.2px; }
      .caption { fill: #2b1244; font-family: "IBM Plex Mono", monospace; font-size: 11px; letter-spacing: 1.2px; }
    </style>
  </defs>
  <g aria-hidden="true">
    <path class="grid" d="M60 24 V336 M120 24 V336 M180 24 V336 M240 24 V336 M300 24 V336 M360 24 V336 M420 24 V336 M480 24 V336 M540 24 V336 M600 24 V336 M660 24 V336"/>
  </g>
  <path class="secondary" d="M120 180 H600"/>
  <circle class="node" cx="180" cy="180" r="8"/>
  <circle class="node" cx="540" cy="180" r="8"/>
  <path class="primary" d="M188 180 H530"/>
  <path class="state" d="M540 180 C540 272 180 272 180 184"/>
  <path class="leader" d="M180 180 V122 H108"/>
  <path class="leader" d="M540 180 V122 H612"/>
  <path class="leader" d="M358 270 V312 H472"/>
  <text class="label" x="82" y="118">INPUT</text>
  <text class="label" x="612" y="118">OUTPUT</text>
  <text class="caption" x="474" y="316">DELAY SEGMENT</text>
</svg>
