<svg xmlns="http://www.w3.org/2000/svg" viewBox="0 0 1200 800" role="img" data-figure-system="fieldnotes-v1"><title>Reality-Closed Circuit</title><desc>HTML, LLM choice, action mapping, frontend state, and backend return form a run loop around a central trace store. A highlighted break is converted into an instruction for the next pass.</desc><defs><marker id="arrow-rc" viewBox="0 0 10 10" refX="8" refY="5" markerWidth="7" markerHeight="7" orient="auto-start-reverse"><path d="M0 0L10 5L0 10Z" fill="#221733"/></marker><marker id="arrow-rc-purple" viewBox="0 0 10 10" refX="8" refY="5" markerWidth="7" markerHeight="7" orient="auto-start-reverse"><path d="M0 0L10 5L0 10Z" fill="#9b7fbc"/></marker></defs><g fill="none" stroke="#c8bfa9" stroke-width="2"><circle cx="600" cy="390" r="235"/><path d="M600 155V300M823 318L700 360M738 585L655 475M462 585L545 475M377 318L500 360"/></g><g fill="#efe6ce" stroke="#221733" stroke-width="3"><rect x="510" y="310" width="180" height="160" rx="14"/><path d="M510 345c38 24 142 24 180 0"/><path d="M510 392c38 24 142 24 180 0"/></g><text x="600" y="290" text-anchor="middle" font-family="sans-serif" font-size="21" fill="#221733">trace store</text><g fill="none" stroke="#221733" stroke-width="3"><rect x="505" y="90" width="190" height="70" rx="10"/><rect x="805" y="275" width="190" height="70" rx="10"/><rect x="705" y="610" width="190" height="70" rx="10"/><rect x="305" y="610" width="190" height="70" rx="10"/><rect x="205" y="275" width="190" height="70" rx="10"/></g><g font-family="sans-serif" fill="#221733" font-size="19" text-anchor="middle"><text x="600" y="133">visible HTML</text><text x="900" y="318">LLM choice</text><text x="800" y="653">action map</text><text x="400" y="653">frontend state</text><text x="300" y="318">backend return</text><text x="600" y="374">what saw</text><text x="600" y="405">what chose</text><text x="600" y="436">where broke</text></g><path d="M682 108C844 148 955 286 955 445C955 611 817 705 650 710" fill="none" stroke="#221733" stroke-width="4" marker-end="url(#arrow-rc)"/><path d="M550 710C383 695 245 589 245 425C245 288 342 166 493 116" fill="none" stroke="#221733" stroke-width="4" marker-end="url(#arrow-rc)"/><circle cx="690" cy="392" r="13" fill="#9b7fbc"/><path d="M703 392C810 430 850 492 812 610" fill="none" stroke="#9b7fbc" stroke-width="4" marker-end="url(#arrow-rc-purple)"/><text x="868" y="513" font-family="sans-serif" font-size="19" fill="#6b5a82">correction from evidence</text></svg>
