<svg xmlns="http://www.w3.org/2000/svg" viewBox="0 0 1200 800" role="img" data-figure-system="fieldnotes-v1"><title>Replayable Run Spine</title><desc>A vertical run spine aligns visible form states with stored trace rows. The highlighted row marks an early stop that can be replayed and explained.</desc><defs><marker id="arrow-rs" viewBox="0 0 10 10" refX="8" refY="5" markerWidth="7" markerHeight="7" orient="auto-start-reverse"><path d="M0 0L10 5L0 10Z" fill="#221733"/></marker></defs><line x1="420" y1="120" x2="420" y2="650" stroke="#221733" stroke-width="4" marker-end="url(#arrow-rs)"/><g fill="#efe6ce" stroke="#221733" stroke-width="3"><rect x="140" y="105" width="210" height="100" rx="10"/><rect x="140" y="255" width="210" height="100" rx="10"/><rect x="140" y="405" width="210" height="100" rx="10"/><rect x="140" y="555" width="210" height="100" rx="10"/></g><g stroke="#aba28d" stroke-width="2"><path d="M165 140h160M165 165h95"/><path d="M165 290h160M165 315h120"/><path d="M165 440h160M165 465h70"/><path d="M165 590h160M165 615h135"/></g><g fill="none" stroke="#c8bfa9" stroke-width="2"><path d="M350 155H500"/><path d="M350 305H500"/><path d="M350 455H500"/><path d="M350 605H500"/></g><g fill="#221733"><circle cx="420" cy="155" r="8"/><circle cx="420" cy="305" r="8"/><circle cx="420" cy="455" r="8"/><circle cx="420" cy="605" r="8"/></g><rect x="520" y="90" width="530" height="590" rx="14" fill="none" stroke="#221733" stroke-width="3"/><text x="545" y="128" font-family="sans-serif" font-size="22" fill="#221733">trace database / replay</text><g stroke="#c8bfa9" stroke-width="2"><path d="M545 170H1020"/><path d="M545 250H1020"/><path d="M545 330H1020"/><path d="M545 410H1020"/><path d="M545 490H1020"/><path d="M545 570H1020"/></g><g font-family="sans-serif" fill="#221733" font-size="18"><text x="565" y="205">001 visible_html captured</text><text x="565" y="285">002 model_decision: fill incident date</text><text x="565" y="365">003 frontend accepted value</text><text x="565" y="445">004 conditional field exposed</text><text x="565" y="525">005 stop verdict before required field</text><text x="565" y="605">006 backend terminal check failed</text></g><rect x="548" y="492" width="465" height="44" rx="6" fill="none" stroke="#9b7fbc" stroke-width="4"/><circle cx="420" cy="455" r="17" fill="#9b7fbc"/><text x="600" y="730" text-anchor="middle" font-family="sans-serif" font-size="20" fill="#6b5a82">the run can be replayed from the records, not guessed from intention</text></svg>
